<?xml version="1.0" standalone="no"?>
<!DOCTYPE svg PUBLIC "-//W3C//DTD SVG 20010904//EN"
 "http://www.w3.org/TR/2001/REC-SVG-20010904/DTD/svg10.dtd">
<svg version="1.0" xmlns="http://www.w3.org/2000/svg"
 width="920.000000pt" height="898.000000pt" viewBox="0 0 920.000000 898.000000"
 preserveAspectRatio="xMidYMid meet">
<metadata>
Created by potrace 1.16, written by Peter Selinger 2001-2019
</metadata>
<g transform="translate(0.000000,898.000000) scale(0.100000,-0.100000)"
fill="#000000" stroke="none">
<path d="M190 8516 c0 -7 32 -80 72 -162 150 -311 276 -504 501 -769 210 -246
303 -343 477 -493 219 -190 386 -310 689 -494 l60 -37 -28 -63 c-71 -157 -118
-347 -156 -633 -46 -349 -58 -400 -151 -605 -90 -200 -87 -244 27 -477 81
-166 135 -240 294 -409 l116 -124 -65 -109 c-161 -267 -214 -453 -223 -783 -4
-128 -2 -208 7 -250 31 -158 133 -391 252 -576 50 -76 59 -98 55 -122 -4 -16
-42 -103 -85 -193 -155 -323 -188 -462 -147 -620 34 -130 149 -306 273 -416
l71 -63 -66 -86 c-75 -98 -149 -242 -159 -310 -6 -38 -4 -48 12 -62 10 -9 24
-25 30 -35 6 -11 24 -22 40 -26 16 -4 36 -10 45 -13 34 -15 282 137 462 282
50 41 106 80 124 88 22 9 98 15 255 19 251 5 316 10 473 32 174 24 269 15 660
-67 187 -38 366 -73 398 -77 31 -3 57 -10 57 -15 0 -5 -18 -51 -40 -103 -56
-131 -68 -187 -47 -218 21 -33 82 -63 144 -72 45 -6 58 -3 114 26 122 61 288
189 435 334 116 115 157 148 225 185 97 52 221 168 289 270 71 105 214 397
253 515 44 136 67 255 67 350 0 71 1 73 28 80 15 3 115 38 222 77 107 39 224
81 260 93 35 12 69 30 74 38 12 19 15 11 -78 222 -36 83 -67 161 -68 174 -3
26 8 32 231 122 40 16 130 55 198 86 l125 56 -5 41 c-3 23 -26 106 -50 186
-24 80 -64 209 -87 288 -27 87 -40 146 -34 151 5 4 115 45 244 91 363 127 390
138 390 161 0 11 -20 82 -44 157 -60 185 -206 667 -206 679 0 5 51 22 113 37
161 41 465 136 907 285 586 197 640 216 714 249 68 32 69 32 63 66 -3 19 -22
77 -43 128 -66 167 -101 242 -523 1102 l-161 329 -33 -6 c-18 -3 -152 -71
-297 -152 -236 -132 -402 -235 -1025 -639 -93 -60 -336 -217 -540 -349 -356
-229 -415 -271 -415 -289 0 -4 195 -302 433 -660 239 -359 439 -664 446 -677
15 -27 9 -34 -44 -51 -22 -7 -125 -46 -230 -87 -104 -41 -221 -86 -260 -100
-79 -28 -95 -39 -95 -61 0 -9 59 -160 130 -335 72 -175 133 -330 136 -345 5
-26 -1 -30 -172 -117 -237 -121 -237 -121 -229 -148 4 -12 46 -105 95 -207 49
-102 92 -196 95 -210 6 -24 -1 -29 -112 -82 -65 -32 -130 -62 -145 -67 -31
-12 -24 -32 -63 191 -30 171 -60 312 -115 528 -22 85 -64 261 -94 390 -148
639 -245 1216 -316 1885 -48 453 -67 545 -175 825 -36 94 -65 174 -65 179 0 5
17 12 37 15 70 13 297 77 467 132 171 56 390 146 554 228 274 138 628 380 837
574 109 101 330 339 351 378 26 49 11 57 -96 50 -47 -3 -170 -10 -275 -16
-350 -19 -466 -30 -589 -56 -305 -64 -602 -149 -815 -234 -264 -106 -681 -331
-889 -480 -46 -33 -91 -60 -101 -60 -10 0 -60 18 -112 41 -226 98 -482 167
-725 195 -168 20 -510 14 -674 -11 -159 -24 -368 -79 -538 -141 -84 -30 -157
-54 -161 -52 -5 2 -69 71 -142 153 -336 379 -619 618 -1074 907 -277 175 -379
228 -738 377 -181 75 -307 103 -307 67z m2231 -2569 c54 -37 82 -98 87 -192
11 -208 -77 -335 -222 -323 -111 9 -179 74 -199 191 -19 111 13 218 85 288 44
42 83 57 159 58 43 1 64 -4 90 -22z m1935 -26 c96 -43 155 -116 173 -214 25
-132 -24 -243 -131 -303 -47 -26 -63 -29 -138 -29 -69 0 -93 5 -128 23 -142
76 -206 233 -152 376 46 120 141 182 268 172 34 -3 83 -14 108 -25z m-1216
-578 c-1 -12 -76 -63 -93 -63 -9 0 -30 12 -48 28 l-33 27 74 6 c41 3 81 6 88
7 6 1 12 -1 12 -5z"/>
</g>
</svg>
